<?xml version="1.0" encoding="utf-8"?>
<svg xmlns="http://www.w3.org/2000/svg" xmlns:svg="http://www.w3.org/2000/svg" version="1.1" viewBox="0 0 1400 340">
	<title>The titlepage for the Standard Ebooks edition of The Prophet, by Khalil Gibran</title>
	<g aria-label="THE PROPHET">
		<path d="m 344.79093,68.245613 h 18.33918 V 130 h 17.59065 V 68.245613 h 18.33918 V 52.807016 h -54.26901 z"/>
		<path d="m 427.98537,99.029239 h 24.88889 V 130 h 17.59065 V 52.807016 H 452.87426 V 83.590642 H 427.98537 V 52.807016 H 410.39473 V 130 h 17.59064 z"/>
		<path d="M 530.83041,52.807016 H 486.66667 V 130 h 44.16374 v -15.4386 h -26.5731 V 99.029239 H 529.7076 V 83.590642 H 504.25731 V 68.245613 h 26.5731 z"/>
		<path d="M 576.52778,52.807016 V 130 h 17.59064 v -28.63158 h 10.5731 c 15.06433,0 26.38597,-8.888888 26.38597,-24.795322 0,-16 -11.32164,-23.766082 -26.38597,-23.766082 z m 17.59064,34.526317 V 66.842104 h 4.95907 c 6.92397,0 13.47368,2.339181 13.47368,10.292398 0,7.859649 -6.54971,10.198831 -13.47368,10.198831 z"/>
		<path d="M 643.84503,52.807016 V 130 h 17.59064 V 99.497075 L 685.01462,130 h 22.36257 l -26.5731,-31.906433 c 9.45029,-2.994152 15.81287,-10.760234 15.81287,-22.362574 0,-15.157895 -10.8538,-22.923977 -25.16959,-22.923977 z m 17.59064,34.245615 V 66.842104 h 2.05848 c 6.64327,0 14.59649,0.467836 14.59649,10.105263 0,9.637428 -7.95322,10.105264 -14.59649,10.105264 z"/>
		<path d="m 712.45176,91.356724 c 0,22.549706 16.09357,40.046786 38.92398,40.046786 22.17544,0 38.83041,-17.49708 38.83041,-40.046786 0,-22.549708 -17.40351,-39.953217 -38.83041,-39.953217 -21.23977,0 -38.92398,17.403509 -38.92398,39.953217 z m 18.99416,0 c 0,-11.508772 6.36257,-23.017544 19.92982,-23.017544 13.66082,0 19.83626,11.508772 19.83626,23.017544 0,11.508776 -5.80117,23.017546 -19.83626,23.017546 -14.40936,0 -19.92982,-11.50877 -19.92982,-23.017546 z"/>
		<path d="M 802.96783,52.807016 V 130 h 17.59064 v -28.63158 h 10.5731 c 15.06433,0 26.38597,-8.888888 26.38597,-24.795322 0,-16 -11.32164,-23.766082 -26.38597,-23.766082 z m 17.59064,34.526317 V 66.842104 h 4.95907 c 6.92397,0 13.47368,2.339181 13.47368,10.292398 0,7.859649 -6.54971,10.198831 -13.47368,10.198831 z"/>
		<path d="m 887.87573,99.029239 h 24.88889 V 130 h 17.59065 V 52.807016 H 912.76462 V 83.590642 H 887.87573 V 52.807016 H 870.28509 V 130 h 17.59064 z"/>
		<path d="M 990.72074,52.807016 H 946.557 V 130 h 44.16374 v -15.4386 h -26.5731 V 99.029239 h 25.4503 V 83.590642 h -25.4503 V 68.245613 h 26.5731 z"/>
		<path d="m 1000.9679,68.245613 h 18.3392 V 130 h 17.5906 V 68.245613 h 18.3392 V 52.807016 h -54.269 z"/>
	</g>
	<g aria-label="KHALIL GIBRAN">
		<path d="m 440.17983,290 -26.94737,-30.45614 23.29824,-27.4386 h -16 l -19.85964,23.64913 V 232.10526 H 387.47807 V 290 h 13.19299 V 265.4386 L 422.00439,290 Z"/>
		<path d="m 460.9068,266.77193 h 18.66667 V 290 h 13.19298 v -57.89474 h -13.19298 v 23.08772 H 460.9068 V 232.10526 H 447.71382 V 290 h 13.19298 z"/>
		<path d="M 535.57127,232.10526 H 523.36074 L 499.99232,290 h 14.17544 l 4.2807,-11.57895 h 22.03509 L 544.76425,290 h 14.17544 z m 0.42105,34.73685 H 522.93969 L 529.39583,250 h 0.14035 z"/>
		<path d="M 579.32236,232.10526 H 566.12938 V 290 h 33.12281 v -11.57895 h -19.92983 z"/>
		<path d="M 623.93311,232.10526 H 610.74013 V 290 h 13.19298 z"/>
		<path d="M 650.58881,232.10526 H 637.39583 V 290 h 33.1228 v -11.57895 h -19.92982 z"/>
		<path d="m 758.54605,257.57895 h -26.73684 v 10.17544 h 13.33333 c 0,7.08772 -6.24561,11.15789 -12.5614,11.15789 -8.14035,0 -14.73684,-8 -14.73684,-17.82456 0,-10.03509 6.59649,-18.10526 14.73684,-18.10526 5.12281,0 9.54386,2.03508 12.91228,7.43859 l 8.63158,-9.47368 c -5.05263,-6.10526 -12.14035,-9.89474 -22.31579,-9.89474 -16.2807,0 -28.21053,13.40351 -28.21053,30.03509 0,16.5614 12.63158,29.96491 28.21053,29.96491 11.36842,0 23.57895,-6.24561 26.73684,-20.91228 z"/>
		<path d="M 782.5022,232.10526 H 769.30922 V 290 h 13.19298 z"/>
		<path d="M 795.96492,232.10526 V 290 h 21.96491 c 12,0 18.94737,-6.59649 18.94737,-16.14035 0,-9.33333 -5.12281,-13.33333 -12.35088,-14.59649 4.91228,-2.52632 7.22807,-7.08772 7.22807,-12.42105 0,-11.01755 -7.85965,-14.73685 -17.82456,-14.73685 z m 13.19298,22.66667 V 242.2807 h 1.05263 c 5.75439,0 8.77193,1.75439 8.77193,5.89474 0,4.8421 -3.08772,6.59649 -8.77193,6.59649 z m 0,25.05263 v -13.68421 h 4.14035 c 6.24562,0 9.68421,1.89474 9.68421,7.22807 0,4.5614 -3.43859,6.45614 -9.68421,6.45614 z"/>
		<path d="M 847.70283,232.10526 V 290 h 13.19299 V 267.12281 L 878.58003,290 h 16.77193 l -19.92983,-23.92982 c 7.08772,-2.24562 11.85965,-8.07018 11.85965,-16.77193 0,-11.36842 -8.14035,-17.19299 -18.87719,-17.19299 z m 13.19299,25.68421 v -15.15789 h 1.54386 c 4.98245,0 10.94737,0.35088 10.94737,7.57895 0,7.22807 -5.96492,7.57894 -10.94737,7.57894 z"/>
		<path d="M 932.40789,232.10526 H 920.19736 L 896.82894,290 h 14.17544 l 4.2807,-11.57895 h 22.03509 L 941.60087,290 h 14.17544 z m 0.42105,34.73685 H 919.77631 L 926.23245,250 h 0.14035 z"/>
		<path d="m 976.15897,254.07018 h 0.14035 L 999.31686,290 h 13.19294 v -57.89474 h -13.19294 v 35.92983 h -0.14035 L 976.15897,232.10526 H 962.96599 V 290 h 13.19298 z"/>
	</g>
</svg>
